# xmcd CD database file
#
# Track frame offsets:
#	183
#	17715
#	31178
#	44615
#	63225
#	79423
#	86683
#	97950
#	113838
#	136888
#	151048
#	169645
#	187768
#	215995
#	232738
#	245230
#
# Disc length: 3449 seconds
#
# Revision: 0
# Processed by: cddbd v1.5.2PL0 Copyright (c) Steve Scherf et al.
# Submitted via: CDex 1.51
#
DISCID=ca0d7710
DTITLE=Combo Belge - Soyons Moderne
DYEAR=1989
DGENRE=Jazz
TTITLE0=Batumambe
TTITLE1=The Hammer
TTITLE2=Caramba Encore Raté
TTITLE3=Goodbye
TTITLE4=A La Tomate
TTITLE5=Soyons Moderne
TTITLE6=On Fem Ce On Fem
TTITLE7=Dancing In The Dark
TTITLE8=Carioca
TTITLE9=Amusette
TTITLE10=Pistache
TTITLE11=Vladimir
TTITLE12=Labyrinthe
TTITLE13=Chien Qui Aboie Ne Mord Pas
TTITLE14=Tic Tac
TTITLE15=Ronfle
EXTD=YEAR: 1989
EXTT0=
EXTT1=
EXTT2=
EXTT3=
EXTT4=
EXTT5=
EXTT6=
EXTT7=
EXTT8=
EXTT9=
EXTT10=
EXTT11=
EXTT12=
EXTT13=
EXTT14=
EXTT15=
PLAYORDER=
